# xmcd CD database file
#
# Track frame offsets:
#	150
#	11967
#	23777
#	34575
#	46205
#	59952
#	72912
#	83795
#	99000
#	110325
#	121557
#	132675
#	143577
#	156170
#	164957
#	175015
#	183822
#	195525
#
# Disc length: 2819 seconds
#
# Revision: 3
# Processed by: cddbd v1.5.2PL0 Copyright (c) Steve Scherf et al.
# Submitted via: CDex 1.50
#
DISCID=f10b0112
DTITLE=Verschiedene - Country Greats Vol.3
DYEAR=1994
DGENRE=Country
TTITLE0=World Without You (Jeannie Seely)
TTITLE1=If I Can't Have You (Jeannie Seely)
TTITLE2=Old Memories Never Die (Jeannie Seely)
TTITLE3=There Goes My Everything (Charley Pride)
TTITLE4=Crazy Love (Barbara Fairchild)
TTITLE5=Things Have Gone To Pieces (George Jones)
TTITLE6=Singing The Blues (Guy Mitchell)
TTITLE7=Indian reservation (Don Fardon)
TTITLE8=Believing In Yourself (Justin Tubb)
TTITLE9=Just One More Time (Justin Tubb)
TTITLE10=How The Time Flies (Jerry Wallace)
TTITLE11=Primrose Lane (Jerry Wallace)
TTITLE12=In The Misty Moonlight (Jerry Wallace)
TTITLE13=Yonder Comes A Sucker (Jim Reeves)
TTITLE14=He'll Have To Go (Jim Reeves)
TTITLE15=According To My Heart (Jim Reeves)
TTITLE16=Mexican Joe (Jim Reeves)
TTITLE17=Just When I Needed You Most (Randy Vanwarmer)
EXTD=YEAR: 1994
EXTT0=
EXTT1=
EXTT2=
EXTT3=
EXTT4=
EXTT5=
EXTT6=
EXTT7=
EXTT8=
EXTT9=
EXTT10=
EXTT11=
EXTT12=
EXTT13=
EXTT14=
EXTT15=
EXTT16=
EXTT17=
PLAYORDER=
